<?xml version="1.0" encoding="UTF-8" standalone="no"?>
<!-- Created with Inkscape (http://www.inkscape.org/) -->

<svg
   width="2.5in"
   height="3.5in"
   viewBox="0 0 63.500001 88.9"
   version="1.1"
   id="svg1"
   inkscape:version="1.3.2 (091e20ef0f, 2023-11-25)"
   sodipodi:docname="frame.svg"
   inkscape:export-filename="frame.png"
   inkscape:export-xdpi="96"
   inkscape:export-ydpi="96"
   xmlns:inkscape="http://www.inkscape.org/namespaces/inkscape"
   xmlns:sodipodi="http://sodipodi.sourceforge.net/DTD/sodipodi-0.dtd"
   xmlns="http://www.w3.org/2000/svg"
   xmlns:svg="http://www.w3.org/2000/svg">
  <sodipodi:namedview
     id="namedview1"
     pagecolor="#ffffff"
     bordercolor="#000000"
     borderopacity="0.25"
     inkscape:showpageshadow="2"
     inkscape:pageopacity="0.0"
     inkscape:pagecheckerboard="false"
     inkscape:deskcolor="#d1d1d1"
     inkscape:document-units="mm"
     inkscape:zoom="2.9631822"
     inkscape:cx="89.430883"
     inkscape:cy="185.61127"
     inkscape:window-width="2560"
     inkscape:window-height="1376"
     inkscape:window-x="0"
     inkscape:window-y="0"
     inkscape:window-maximized="1"
     inkscape:current-layer="layer1" />
  <defs
     id="defs1">
    <inkscape:path-effect
       effect="join_type"
       id="path-effect4"
       is_visible="true"
       lpeversion="1"
       linecap_type="peak"
       line_width="3.62"
       linejoin_type="bevel"
       miter_limit="2"
       attempt_force_join="true" />
    <inkscape:path-effect
       effect="fillet_chamfer"
       id="path-effect3"
       is_visible="true"
       lpeversion="1"
       nodesatellites_param="F,0,0,1,0,8.4666667,0,1 @ F,0,0,1,0,8.4666667,0,1 @ F,0,0,1,0,8.4666667,0,1 @ F,0,0,1,0,8.4666667,0,1"
       radius="32"
       unit="px"
       method="arc"
       mode="F"
       chamfer_steps="1"
       flexible="false"
       use_knot_distance="true"
       apply_no_radius="true"
       apply_with_radius="true"
       only_selected="false"
       hide_knots="false" />
    <inkscape:path-effect
       effect="fillet_chamfer"
       id="path-effect2"
       is_visible="true"
       lpeversion="1"
       nodesatellites_param="F,0,0,1,0,0,0,1 @ F,0,0,1,0,0,0,1 @ F,0,0,1,0,0,0,1 @ F,0,0,1,0,0,0,1"
       radius="0"
       unit="px"
       method="auto"
       mode="F"
       chamfer_steps="1"
       flexible="false"
       use_knot_distance="true"
       apply_no_radius="true"
       apply_with_radius="true"
       only_selected="false"
       hide_knots="false" />
    <inkscape:path-effect
       effect="dashed_stroke"
       id="path-effect1"
       is_visible="true"
       lpeversion="1"
       numberdashes="30"
       holefactor="0"
       splitsegments="false"
       halfextreme="true"
       unifysegment="true"
       message="Add &lt;b&gt;&quot;Fill Between Many LPE&quot;&lt;/b&gt; to add fill." />
  </defs>
  <g
     inkscape:label="Layer 1"
     inkscape:groupmode="layer"
     id="layer1">
    <path
       id="rect1"
       style="fill:none;fill-rule:nonzero;stroke:#665951;stroke-width:1.35992771;stroke-linecap:round;stroke-dasharray:none;stroke-opacity:1"
       d="m 10.535823,5.2172506 c 0.669484,-0.1702656 1.37082,-0.2607563 2.093291,-0.2607563 h 2.114966 m 4.229934,0 h 4.229933 m 4.229934,0 h 4.229933 m 4.229934,0 h 4.229933 m 4.229934,0 4.229933,0 m 4.213178,0.2199924 c 1.404174,0.3266232 2.674245,1.0026303 3.71362,1.9314266 m 2.338111,3.4723817 c 0.316669,0.888559 0.489096,1.845576 0.489096,2.842866 v 1.331128 m 0,4.229933 v 4.229933 m 0,4.229934 v 4.229933 m 0,4.229934 v 4.229933 m 0,4.229934 v 4.229933 m 0,4.229934 v 4.229933 m 0,4.229933 v 4.229934 m 0,4.229933 v 4.229934 m -0.432905,4.183414 c -0.453143,1.359044 -1.241493,2.564804 -2.266953,3.519179 m -3.673504,2.006799 c -0.669489,0.170268 -1.370829,0.26076 -2.093305,0.26076 h -2.11498 m -4.229934,0 h -4.229933 m -4.229933,0 h -4.229934 m -4.229933,0 h -4.229934 m -4.229933,0 H 14.916438 M 10.70326,83.723513 C 9.2990874,83.396888 8.0290171,82.720879 6.989644,81.792081 M 4.6515388,78.319696 C 4.3348727,77.43114 4.162447,76.474127 4.162447,75.476842 v -1.331141 m 0,-4.229933 v -4.229934 m 0,-4.229933 v -4.229934 m 0,-4.229933 V 48.7661 m 0,-4.229933 v -4.229934 m 0,-4.229933 v -4.229933 m 0,-4.229934 V 23.3865 m 0,-4.229934 V 14.926633 M 4.5953559,10.74322 C 5.0485011,9.3841761 5.8368538,8.1784177 6.8623149,7.2240435 M 10.535823,5.2172506 c 0.669484,-0.1702656 1.37082,-0.2607563 2.093291,-0.2607563"
       inkscape:path-effect="#path-effect3;#path-effect1"
       inkscape:original-d="M 4.162447,4.9564943 H 59.337553 V 83.943509 H 4.162447 Z"
       transform="matrix(1.0522009,0,0,1.0376666,-1.6573767,-1.6742799)" />
  </g>
</svg>
