<?xml version="1.0" encoding="UTF-8" standalone="no"?>
<!-- Created with Inkscape (http://www.inkscape.org/) -->

<svg
   width="2.5in"
   height="3.5in"
   viewBox="0 0 63.500001 88.9"
   version="1.1"
   id="svg1"
   inkscape:version="1.3.2 (091e20ef0f, 2023-11-25)"
   sodipodi:docname="frame.svg"
   xmlns:inkscape="http://www.inkscape.org/namespaces/inkscape"
   xmlns:sodipodi="http://sodipodi.sourceforge.net/DTD/sodipodi-0.dtd"
   xmlns="http://www.w3.org/2000/svg"
   xmlns:svg="http://www.w3.org/2000/svg">
  <sodipodi:namedview
     id="namedview1"
     pagecolor="#ffffff"
     bordercolor="#000000"
     borderopacity="0.25"
     inkscape:showpageshadow="2"
     inkscape:pageopacity="0.0"
     inkscape:pagecheckerboard="false"
     inkscape:deskcolor="#d1d1d1"
     inkscape:document-units="mm"
     inkscape:zoom="2.9631822"
     inkscape:cx="89.262147"
     inkscape:cy="185.94874"
     inkscape:window-width="2560"
     inkscape:window-height="1376"
     inkscape:window-x="0"
     inkscape:window-y="0"
     inkscape:window-maximized="1"
     inkscape:current-layer="layer1" />
  <defs
     id="defs1">
    <inkscape:path-effect
       effect="join_type"
       id="path-effect4"
       is_visible="true"
       lpeversion="1"
       linecap_type="peak"
       line_width="3.62"
       linejoin_type="bevel"
       miter_limit="2"
       attempt_force_join="true" />
    <inkscape:path-effect
       effect="fillet_chamfer"
       id="path-effect3"
       is_visible="true"
       lpeversion="1"
       nodesatellites_param="F,0,0,1,0,12.170833,0,1 @ F,0,0,1,0,12.170833,0,1 @ F,0,0,1,0,12.170833,0,1 @ F,0,0,1,0,12.170833,0,1"
       radius="46"
       unit="px"
       method="arc"
       mode="F"
       chamfer_steps="1"
       flexible="false"
       use_knot_distance="true"
       apply_no_radius="true"
       apply_with_radius="true"
       only_selected="false"
       hide_knots="false" />
    <inkscape:path-effect
       effect="fillet_chamfer"
       id="path-effect2"
       is_visible="true"
       lpeversion="1"
       nodesatellites_param="F,0,0,1,0,0,0,1 @ F,0,0,1,0,0,0,1 @ F,0,0,1,0,0,0,1 @ F,0,0,1,0,0,0,1"
       radius="0"
       unit="px"
       method="auto"
       mode="F"
       chamfer_steps="1"
       flexible="false"
       use_knot_distance="true"
       apply_no_radius="true"
       apply_with_radius="true"
       only_selected="false"
       hide_knots="false" />
    <inkscape:path-effect
       effect="dashed_stroke"
       id="path-effect1"
       is_visible="true"
       lpeversion="1"
       numberdashes="22"
       holefactor="0"
       splitsegments="false"
       halfextreme="true"
       unifysegment="true"
       message="Add &lt;b&gt;&quot;Fill Between Many LPE&quot;&lt;/b&gt; to add fill." />
  </defs>
  <g
     inkscape:label="Layer 1"
     inkscape:groupmode="layer"
     id="layer1">
    <path
       id="rect1"
       style="fill:none;fill-rule:nonzero;stroke:#241c1c;stroke-width:1.93458;stroke-linecap:round;stroke-dasharray:none"
       d="m 13.546093,5.2771204 c 0.89507,-0.2097078 1.828175,-0.3206261 2.787187,-0.3206261 h 2.811817 m 5.623634,0 h 5.623635 m 5.623634,0 h 5.623634 m 5.623633,3.75e-4 c 1.9483,0.015137 3.787596,0.488057 5.415632,1.3165 m 4.258882,3.5962752 c 1.102491,1.4818635 1.875847,3.2231165 2.21187,5.1155585 m 0.187902,5.612637 v 5.623634 m 0,5.623635 v 5.623634 m 0,5.623634 v 5.623634 m 0,5.623634 v 5.623635 m 0,5.623634 v 5.623634 m -1.034247,5.479437 c -0.765822,1.731869 -1.923777,3.251574 -3.361289,4.446536 m -4.988091,2.486357 c -0.895076,0.209711 -1.828187,0.320631 -2.787206,0.320631 h -2.811837 m -5.623634,0 h -5.623634 m -5.623634,0 h -5.623635 m -5.623633,-3.75e-4 c -1.948299,-0.01514 -3.787595,-0.488063 -5.41563,-1.316509 M 6.5622074,79.030343 C 5.4597192,77.548478 4.686366,75.807224 4.3503456,73.914781 M 4.162447,68.302143 v -5.623634 m 0,-5.623634 v -5.623634 m 0,-5.623634 v -5.623635 m 0,-5.623634 v -5.623634 m 0,-5.623634 V 17.689436 M 5.1967022,12.21 C 5.9625264,10.478132 7.120484,8.9584297 8.5579978,7.7634696 M 13.546093,5.2771204 c 0.89507,-0.2097078 1.828175,-0.3206261 2.787187,-0.3206261"
       inkscape:path-effect="#path-effect3;#path-effect1"
       inkscape:original-d="M 4.162447,4.9564943 H 59.337553 V 83.943509 H 4.162447 Z"
       transform="matrix(1.0522009,0,0,1.0376666,-1.6573767,-1.6742799)" />
  </g>
</svg>
